<svg version="1.1" xmlns="http://www.w3.org/2000/svg" xmlns:xlink="http://www.w3.org/1999/xlink" x="0px" y="0px" width="64px" height="64px" enable-background="new 0 0 64 64" xml:space="preserve">
	<g id="facebook">
		<path fill-rule="evenodd" clip-rule="evenodd" fill="none" stroke-miterlimit="10" d="
		M62.2,53.6c-0.3,1.9-1,3.7-2.3,5.2c-1.5,1.8-3.5,2.8-5.8,3.3c-0.2,0-0.4,0.1-0.6,0.1c-0.1-0.2-0.3-0.1-0.5-0.1C47,62,41,62,34.9,62
		c-0.6,0-0.6,0-0.6-0.6c0-8.6,0-17.1,0-25.7c0-0.3,0-0.6,0.4-0.7c2.1,0,4.1,0,6.2,0c0.4,0,0.5-0.1,0.5-0.5c0.1-1.4,0.2-2.8,0.4-4.1
		c0.1-0.5,0.1-0.9,0.1-1.4c0-0.3-0.1-0.4-0.4-0.4c-2.2,0-4.4,0-6.6,0c-0.4,0-0.4-0.1-0.4-0.5c0-1.7,0-3.4,0-5.2
		c0-1.6,0.7-2.8,2.3-3.4c0.4-0.2,0.8-0.3,1.3-0.3c1.2,0,2.4,0,3.6,0c0.3,0,0.4,0,0.4-0.4c0-1.4,0-2.9,0-4.3c0-0.3-0.1-0.4-0.3-0.4
		c-2.1,0-4.1-0.1-6.2,0c-1.6,0.1-3.2,0.4-4.6,1.4c-1.5,1-2.3,2.5-2.8,4.2c-0.5,1.8-0.4,3.6-0.4,5.3c0,1,0,2,0,3
		c0,0.3-0.1,0.4-0.4,0.4c-1.3,0-2.6,0-3.9,0c-0.3,0-0.4,0-0.4,0.4c0,1.9,0,3.8,0,5.7c0,0.3,0.1,0.4,0.4,0.4c1.4,0,2.7,0,4.1,0
		c0.3,0,0.3,0.1,0.3,0.4c0,8.8,0,17.6,0,26.4c0,0.3-0.1,0.4-0.4,0.4c-5.3,0-10.6,0-16,0c-2.3,0-4.5-0.8-6.3-2.4
		C3.5,58.3,2.4,56.3,2,54c-0.1-0.6-0.2-1.1-0.2-1.7c0-13.6,0-27.1,0-40.7c0-2.4,0.8-4.6,2.4-6.5c1.3-1.5,3-2.5,4.9-3.1
		c0.8-0.2,1.6-0.3,2.4-0.3c13.6,0,27.3,0,40.9,0c2.2,0,4.1,0.7,5.9,2C60.2,5.1,61.3,7,62,9.1c0.1,0.4,0.2,0.8,0.2,1.3
		c-0.2,0.1-0.1,0.3-0.1,0.5c0,9.9,0,19.8,0,29.7c0,4.2,0,8.4,0,12.6C62.1,53.3,62,53.5,62.2,53.6z" />
	</g>
	<g id="twitter">
		<path fill-rule="evenodd" clip-rule="evenodd" fill="none" stroke-miterlimit="10" d="
		M31.9,62.5c-8.6,0-17.2,0-25.8,0c-2.7,0-4.5-1.9-4.6-4.5c0-17.3-0.1-34.6,0-51.9c0-2.6,1.8-4.5,4.6-4.5c17.3-0.1,34.5-0.1,51.8,0
		c2.7,0,4.6,2,4.6,4.6c0,17.2,0,34.5,0,51.7c0,2.6-2.1,4.6-4.6,4.6C49.2,62.5,40.6,62.5,31.9,62.5z" />
		<path fill-rule="evenodd" clip-rule="evenodd" d="M53.1,14.6c-0.4,2.1-2,3.3-3.4,4.8c1.7,0,3.1-0.7,4.7-1.2
		c-1.1,1.7-2.5,3-3.9,4.2c-0.5,0.4-0.7,0.7-0.7,1.3c0.3,4.8-1,9.2-3.3,13.3c-2.9,5.3-7.2,9.2-12.9,11.5c-3.9,1.6-7.8,2.1-11.9,1.8
		c-4.2-0.3-8.1-1.5-11.8-3.9c5.6,0.1,9.3-1,13.2-3.9C19,42,16.1,40,14.6,36c1,0,1.9,0,2.8,0c0.2,0,0.5,0.1,0.5-0.2
		c0-0.3-0.3-0.3-0.5-0.4c-2.5-0.8-4.1-2.6-5.3-4.9c-0.6-1.2-0.9-2.4-0.7-3.9c1.2,0.6,2.6,0.9,4.3,1.3c-2.1-1.5-3.3-3.3-3.9-5.5
		c-0.6-2.2-0.3-4.2,0.5-6.3c0.3-0.7,0.4-0.6,0.9-0.1c3.7,4.3,8.4,7,13.9,8.4c1.2,0.3,2.5,0.6,3.8,0.5c0.6,0,0.7-0.2,0.7-0.7
		c0-1.7-0.1-3.4,0.7-5c1.3-2.9,3.6-4.6,6.6-5.3c2.9-0.7,5.5,0.1,7.8,2c1.2,1,2.4,0.3,3.5-0.1C51.1,15.5,52,15.1,53.1,14.6z" />
	</g>
	<g id="youtube">
		<path fill-rule="evenodd" clip-rule="evenodd" fill="none" stroke-width="3" stroke-miterlimit="10" d="M62.5,6.2
		c0,17.2,0,34.5,0,51.7c0,2.6-2.1,4.6-4.6,4.6c-8.7,0-17.4,0-26,0c-8.6,0-17.2,0-25.8,0c-2.7,0-4.5-1.9-4.5-4.5
		c0-17.3,0-34.6,0-51.9c0-2.6,1.8-4.5,4.6-4.5c17.3-0.1,34.5-0.1,51.8,0C60.6,1.5,62.5,3.5,62.5,6.2z" />
		<path fill-rule="evenodd" clip-rule="evenodd" d="M54.8,26.9C54.8,26.9,54.8,26.8,54.8,26.9
			c-0.3-2.4-0.5-4.8-0.9-7.2c-0.3-1.7-1.1-3-2.9-3.5c-1.9-0.5-3.8-0.6-5.7-0.8c-2.9-0.3-5.9-0.5-8.9-0.5c-5.7-0.1-11.4-0.2-17,0.4
			c-1,0.1-1.9,0.3-2.9,0.4c-1,0.1-1.9,0.2-2.9,0.4c-2.1,0.3-3.3,1.7-3.6,3.4c-0.5,2.6-0.8,5.2-0.9,7.9C9.1,30.7,9,34.1,9.3,37.5
			c0.2,2.3,0.4,4.6,0.7,6.9c0.2,1.5,1.8,3.3,3.1,3.5c1.7,0.3,3.5,0.5,5.2,0.7c2.4,0.2,4.7,0.5,7.1,0.5c4.7,0,9.4,0.2,14.1-0.1
			c1.7-0.1,3.3-0.2,5-0.4c2-0.2,4-0.4,6-0.7c1.5-0.3,2.9-1.5,3.2-3c0.2-1.2,0.4-2.4,0.6-3.6c0.5-3.4,0.7-6.9,0.7-10.3
			C54.9,29.6,54.8,28.3,54.8,26.9z M42.9,32.3c-1.5,0.8-2.9,1.7-4.4,2.6c-2.7,1.6-5.5,3.1-8.2,4.7c-2.1,1.2-4.2,2.4-6.2,3.6
			c-0.4,0.2-0.7,0.4-0.7-0.4c0-7.2,0-14.5,0-21.7c0-0.1,0-0.2,0.1-0.3c4.4,2.5,8.9,5.1,13.3,7.6c2,1.1,4,2.3,6,3.4
			C43.3,31.9,43.4,32,42.9,32.3z" />
	</g>
	<g id="google+">
		<path fill-rule="evenodd" clip-rule="evenodd" fill="none" stroke-width="3" stroke-miterlimit="10" d="
			M62.5,6.2c0,17.2,0,34.5,0,51.7c0,2.6-2.1,4.6-4.6,4.6c-8.7,0-17.4,0-26,0c-8.6,0-17.2,0-25.8,0c-2.7,0-4.5-1.9-4.5-4.5
			c0-17.3,0-34.6,0-51.9c0-2.6,1.8-4.5,4.6-4.5c17.3-0.1,34.5-0.1,51.8,0C60.6,1.5,62.5,3.5,62.5,6.2z" />
		<path fill-rule="evenodd" clip-rule="evenodd" fill="#B3B3B3" d="M53.8,30.7v3.2c0,0.1-0.1,0.1-0.1,0.1c-1.2,0-2.4,0-3.5,0
			C50,34,50,34,50,33.9c-0.2,0-0.1,0.2-0.1,0.3c0,1.1,0,2.1,0,3.2c0,0.3,0,0.4-0.4,0.4c-0.8,0-1.5,0-2.3,0c-0.4,0-0.4-0.1-0.4-0.4
			c0-1.1,0-2.1,0-3.2c0-0.1,0.1-0.3-0.1-0.3c0,0.1,0,0.2,0,0.2c-1.2-0.2-2.4,0-3.6-0.1c-0.1,0-0.1,0-0.1-0.1v-3.2
			c0-0.1,0.1-0.1,0.1-0.1c1.2,0,2.4,0,3.5,0c0.1,0,0.1,0,0.1,0.1c0.2,0,0.1-0.2,0.1-0.3c0-1.1,0-2.1,0-3.2c0-0.3,0-0.4,0.4-0.4
			c0.8,0,1.5,0,2.3,0c0.4,0,0.4,0.1,0.4,0.4c0,1.1,0,2.1,0,3.2c0,0.1-0.1,0.3,0.1,0.3c0-0.1,0.1-0.1,0.1-0.1c1.2,0,2.4,0,3.5,0
			C53.7,30.6,53.8,30.6,53.8,30.7z" />
		<path fill-rule="evenodd" clip-rule="evenodd" fill="#B3B3B3" d="M24.5,33.7c0-0.8,0-1.7,0-2.5c0-0.6,0.1-0.9,0.7-0.8
		c0.2,0,0.4,0,0.6,0c3.2,0,6.3,0,9.5,0c0.3,0,0.7-0.1,0.9,0.4c0,0.2,0,0.5,0,0.7c0,0.3,0,0.6,0,1c0.1,2.5-0.6,4.8-2,6.9
		c-0.9,1.4-2.2,2.3-3.6,3.2c-2.2,1.2-4.5,1.6-7,1.5c-1,0-2-0.4-2.9-0.6c-0.1,0-0.2-0.1-0.3,0c-1-0.6-2.2-1-3.1-1.8
		c-0.7-0.6-1.4-1.2-2.1-1.7c-0.7-1.1-1.5-2.1-2-3.3c-0.6-1.3-0.9-2.6-1-4c0-0.2,0.1-0.4-0.2-0.6c0.1-2.4,0.6-4.7,1.8-6.9
		c1.4-2.3,3.4-4,5.9-5.1c1.4-0.6,2.8-1,4.3-1c3.5-0.2,6.5,0.9,9.2,3.1c0,0.1,0.1,0.1,0.1,0.2c-0.1,0.1-0.2,0.1-0.2,0.3
		c-0.8,0.6-1.2,1.4-1.9,2c-0.1,0-0.2,0.1-0.2,0.2c-0.1,0-0.3,0-0.3-0.2c-0.4-0.2-0.6-0.6-1-0.7c-0.9-0.7-2-1.2-3.2-1.3
		c-1.3-0.5-2.7-0.3-4,0.1c-3.4,0.9-5.6,3.3-6.5,6.7c-0.2,0.9-0.3,1.8-0.2,2.8c0.2,1.2,0.3,2.4,1.1,3.4c0.6,1.5,1.6,2.6,3,3.4
		c1,0.8,2.3,1.2,3.5,1.4c0.7,0.1,1.3,0.1,2,0.1c0.1,0,0.3,0.1,0.4-0.2c2.8-0.3,5-1.5,6.3-4c0.3-0.3,0.3-0.7,0.4-1
		c0.3-0.2,0-0.6,0.2-0.9c0.3-0.6,0-0.7-0.6-0.7c-2,0-4,0-6,0c-0.2,0-0.5,0-0.7,0C25,33.8,24.7,34,24.5,33.7z" />
	</g>
	<path id="top-bandera" fill="#E5E7E9" fill-opacity="1" d="M0,288L48,272C96,256,192,224,288,197.3C384,171,480,149,576,165.3C672,181,768,235,864,250.7C960,267,1056,245,1152,250.7C1248,256,1344,288,1392,304L1440,320L1440,320L1392,320C1344,320,1248,320,1152,320C1056,320,960,320,864,320C768,320,672,320,576,320C480,320,384,320,288,320C192,320,96,320,48,320L0,320Z">
	</path>
	<path id="bottom-bandera" fill="#fff" fill-opacity="1" d="M0,288L48,272C96,256,192,224,288,197.3C384,171,480,149,576,165.3C672,181,768,235,864,250.7C960,267,1056,245,1152,250.7C1248,256,1344,288,1392,304L1440,320L1440,320L1392,320C1344,320,1248,320,1152,320C1056,320,960,320,864,320C768,320,672,320,576,320C480,320,384,320,288,320C192,320,96,320,48,320L0,320Z">
	</path>
	<g id="instagram">
		<path fill="none" stroke="#B3B3B3" stroke-width="3" stroke-miterlimit="10" d="M62.5,6.2c0,17.2,0,34.5,0,51.7
		c0,2.6-2.1,4.6-4.6,4.6c-8.7,0-17.4,0-26,0s-17.2,0-25.8,0c-2.7,0-4.5-1.9-4.5-4.5c0-17.3,0-34.6,0-51.9c0-2.6,1.8-4.5,4.6-4.5
		c17.3-0.1,34.5-0.1,51.8,0C60.6,1.5,62.5,3.5,62.5,6.2z" />
		<path fill-rule="evenodd" clip-rule="evenodd" fill="#D9D9D9" d="M50.7,22.9c-0.1-5.5-4.3-9.9-9.7-10c-6-0.1-12-0.1-18,0
		c-5.3,0.1-9.6,4.5-9.7,9.8c-0.1,5.8,0,11.6,0,17.5c0,0.5,0,0.9,0.1,1.4c0.9,5.4,5,8.8,10.5,8.8c5.4,0,10.9,0,16.3,0
		c6,0,10.5-4.4,10.5-10.5c0-2.8,0-5.5,0-8.3C50.7,28.7,50.7,25.8,50.7,22.9z M49.4,40.6c-0.1,4.5-3.9,8.2-8.4,8.4c-3,0.1-6,0-9,0v0
		c-2.8,0-5.5,0-8.3,0c-5.2,0-9.1-3.7-9.2-9c-0.1-5.6,0-11.3,0-16.9c0-4.8,3.8-8.9,9-8.9c5.8,0,11.6-0.1,17.5,0.1
		c4.5,0.1,8.3,3.9,8.3,8.4C49.5,28.6,49.5,34.6,49.4,40.6z" />
		<path fill-rule="evenodd" clip-rule="evenodd" fill="#D9D9D9" d="M32.1,22.3c-5-0.1-9.2,4.1-9.3,9.2c0,5,4.1,9.3,8.9,9.3
		c5.3,0,9.5-4,9.5-9.2C41.3,26.5,37.2,22.4,32.1,22.3z M31.9,39.5c-4.4,0-7.9-3.7-7.9-8c0-4.3,3.7-7.9,8-7.9c4.4,0,8,3.6,7.9,8.1
		C39.9,36,36.3,39.6,31.9,39.5z" />
		<path fill-rule="evenodd" clip-rule="evenodd" fill="#D9D9D9" d="M44.6,20.6c0,0.6-0.6,1.2-1.2,1.2c-0.7,0-1.2-0.6-1.2-1.3
		c0-0.7,0.5-1.2,1.2-1.2C44,19.4,44.6,19.9,44.6,20.6z" />
	</g>
	<g id="whatsaap">
		<path fill="none" stroke="#B3B3B3" stroke-width="3" stroke-miterlimit="10" d="M62.5,6.2c0,17.2,0,34.5,0,51.7
		c0,2.6-2.1,4.6-4.6,4.6c-8.7,0-17.4,0-26,0s-17.2,0-25.8,0c-2.7,0-4.5-1.9-4.5-4.5c0-17.3,0-34.6,0-51.9c0-2.6,1.8-4.5,4.6-4.5
		c17.3-0.1,34.5-0.1,51.8,0C60.6,1.5,62.5,3.5,62.5,6.2z" />
		<g>
			<path fill-rule="evenodd" clip-rule="evenodd" fill="#B3B3B3" d="M50.5,26.2c-3.1-10.3-14.3-16-24.5-12.5
			c-7.4,2.6-12.5,9.4-12.9,17.2c-0.2,3.6,0.6,7,2.4,10.1c0.1,0.1,0.1,0.3,0.1,0.4c-0.6,2.1-1.2,4.2-1.8,6.3c-0.3,1.2-0.7,2.3-1,3.5
			c0.1,0,0.2,0,0.2,0c3.2-0.9,6.4-1.9,9.5-2.8c0.2-0.1,0.3-0.1,0.5,0c4.2,2.3,8.6,3,13.2,2C47,48.1,53.8,37.1,50.5,26.2z M49.4,33.1
			c-0.5,6.9-5.1,12.8-11.7,15c-5,1.7-9.9,1.1-14.5-1.6c-0.2-0.1-0.4-0.2-0.6-0.1c-2.4,0.7-4.8,1.4-7.3,2.1c0.2-0.8,0.5-1.6,0.7-2.4
			c0.5-1.7,1-3.3,1.5-5c0-0.2,0-0.3-0.1-0.4c-1.9-3.1-2.7-6.4-2.5-10c0.4-5.8,3-10.3,7.9-13.5c3.1-2.1,6.6-3,10.3-2.7
			c6.5,0.5,11.4,3.7,14.5,9.5C49.1,26.9,49.7,29.9,49.4,33.1z" />
			<path fill-rule="evenodd" clip-rule="evenodd" fill="#B3B3B3" d="M38.2,41.8c-0.2,0-0.3,0-0.5,0c-4.2-0.2-7.8-1.7-10.8-4.6
			c-2.5-2.5-4-5.5-4.6-8.9c-0.1-0.8-0.2-1.6-0.2-2.5c0-1.9,1.3-3.5,3.2-3.9c0.7-0.1,1.3-0.1,1.9,0.1c0.1,0,0.2,0.1,0.2,0.2
			c0.5,2.1,0.9,4.2,1.4,6.2c0,0.1,0,0.2-0.1,0.3c-0.6,0.3-1.2,0.6-1.8,0.9c-0.1,0.1-0.2,0.1-0.1,0.3c1.3,3.4,3.7,5.8,7.2,7.1
			c0.1,0.1,0.2,0,0.3-0.1c0.3-0.6,0.6-1.2,0.9-1.8c0.1-0.1,0.1-0.2,0.3-0.1c2.1,0.5,4.1,0.9,6.2,1.4c0.2,0,0.2,0.1,0.3,0.3
			C42.8,39.2,40.9,41.8,38.2,41.8z" />
		</g>
	</g>
	<g id="carrito">
		<polyline fill="none" stroke-width="3" stroke-miterlimit="10" points="47.7,44.1 19.7,44.1 23.8,38.4 46.1,37 
			51.4,22.8 20.4,22.8 23.8,38.2 18.1,13.3 12.6,12.3 		" />
		<ellipse fill="none" stroke="#B3B3B3" stroke-miterlimit="10" cx="27.8" cy="49.3" rx="2.3" ry="2.4" />
		<ellipse fill="none" stroke="#B3B3B3" stroke-miterlimit="10" cx="39.6" cy="49.3" rx="2.3" ry="2.4" />
	</g>
	<g id="mail">
		
		<path fill-rule="evenodd" clip-rule="evenodd" fill="#B3B3B3" d="M53.5,20.4H10.6c-0.3,0-0.5-0.1-0.8,0.1v0.1l0,22.8v0
		c2.7,0,5.3,0,8,0h36.4v-0.1c0-7.6,0-15.2,0-22.7v-0.1C54,20.4,53.7,20.4,53.5,20.4z M10.9,21.1h42.2c0,0.2-0.2,0.3-0.3,0.4
		C46,26.7,39.3,32,32.5,37.3c-0.3,0.2-0.5,0.3-0.9,0C24.8,32,17.9,26.6,11,21.3c0,0-0.1-0.1-0.2-0.1L10.9,21.1z M10.3,21.4
		c4.6,3.6,9.1,7.1,13.7,10.6c-4.6,3.5-9.1,7.1-13.7,10.6V21.4z M10.8,42.8c4.4-3.5,8.8-6.8,13.1-10.3c0.4-0.3,0.6-0.1,0.9,0.1
		c2.2,1.7,4.4,3.4,6.6,5.1c0.4,0.3,0.7,0.4,1.2,0c2.2-1.7,4.4-3.4,6.6-5.2c0.4-0.3,0.6-0.3,1,0c4.3,3.4,8.6,6.7,13,10.2H10.8z
		 M53.8,42.6C49.2,39,44.7,35.5,40.1,32c4.6-3.5,9.1-7.1,13.7-10.6V42.6z" />
	</g>
	<g id="user">
		
		<g>
			<path fill-rule="evenodd" clip-rule="evenodd" fill="none" stroke-miterlimit="10" d="M53.8,55.6
			c-1.3-22-21.5-21.3-21.5-21.3c-20.2-0.9-22.1,21.3-22.1,21.3H53.8z" />
			<ellipse fill-rule="evenodd" clip-rule="evenodd" fill="none" stroke-miterlimit="10" cx="32.3" cy="19.7" rx="11.1" ry="11.3" />
		</g>
	</g>
	<g id="eye">
		<path fill-rule="evenodd" clip-rule="evenodd" stroke-width="2" stroke-miterlimit="10" d="
		M55.8,31.3c-2.5-2.7-5.2-5.1-8.3-7.1c-6.2-3.9-12.9-5.4-20.2-3.8C19.8,22.1,13.6,26,8.2,31.3c-0.5,0.5-0.5,0.8,0.1,1.4
		c3,3,6.3,5.5,10,7.5c4.6,2.5,9.4,4,14.7,4c3.3,0,6.5-0.6,9.6-1.9c5.2-2.1,9.5-5.6,13.3-9.7C56.3,32.1,56.2,31.7,55.8,31.3z
		 M54.1,32.3c-4,4.2-8.6,7.7-14.3,9.4c-2.2,0.7-4.5,1-7.5,1c-5.1,0-10.2-1.9-15.1-4.8c-2.6-1.6-5-3.4-7.2-5.5
		c-0.2-0.2-0.3-0.4,0-0.6c4.8-4.5,10.3-7.9,16.7-9.6c7.6-1.9,14.6-0.4,21,4c2.3,1.6,4.4,3.5,6.4,5.5C54.2,31.9,54.4,32,54.1,32.3z" />
		<circle fill-rule="evenodd" clip-rule="evenodd" fill="none" stroke-miterlimit="10" cx="32" cy="32" r="4.4" />
	</g>
	<g id="eye-off">
		<path fill-rule="evenodd" clip-rule="evenodd" stroke-width="0.90" stroke-miterlimit="10" d="
		M56.2,33.6c-0.4,1-1.6,1.1-2.3,0.3c-1.1-1.2-2.1-2.5-3.1-3.7c-0.3-0.4-0.5-0.5-0.9-0.1c-1.5,1.4-3.2,2.4-5,3.3
		c-0.4,0.2-0.5,0.4-0.3,0.8c0.6,1.4,1.2,2.8,1.7,4.2c0.2,0.5,0.3,1.1-0.1,1.6c-0.7,0.9-1.9,0.7-2.4-0.4c-0.6-1.4-1.2-2.8-1.8-4.3
		c-0.2-0.5-0.4-0.5-0.8-0.4c-2.4,0.8-5,1.3-7.5,1.4c-0.5,0-0.7,0.1-0.7,0.7c0.1,0.7,0,1.5,0,2.2c0,0.8,0,1.6,0,2.3
		c0,0.9-0.6,1.5-1.4,1.5c-0.8,0-1.4-0.6-1.4-1.5c0-1.6,0-3.1,0-4.7c0-0.4-0.1-0.5-0.5-0.6c-2.4-0.1-4.8-0.5-7.1-1.2
		c-0.4-0.1-0.5-0.1-0.7,0.3c-0.6,1.4-1.1,2.8-1.7,4.2c-0.2,0.6-0.7,0.9-1.3,0.9c-0.6,0-1-0.3-1.3-0.9c-0.2-0.5-0.1-0.9,0.1-1.3
		c0.5-1.3,1.1-2.6,1.6-3.9c0.2-0.4,0.2-0.5-0.2-0.7c-1.9-0.9-3.8-2-5.4-3.4c-0.3-0.3-0.5-0.2-0.7,0.1c-1,1.2-1.9,2.3-2.9,3.5
		c-0.4,0.4-0.9,0.6-1.5,0.4c-0.5-0.2-0.9-0.6-0.9-1.1c-0.1-0.5,0.2-0.9,0.5-1.3c0.9-1.1,1.9-2.3,2.8-3.4c0.3-0.3,0.3-0.5,0-0.8
		c-1.1-1.2-2.1-2.6-2.9-4.1c-0.1-0.2-0.2-0.4-0.3-0.6c-0.4-0.8-0.1-1.6,0.6-1.9c0.7-0.4,1.5-0.1,1.9,0.8c1.2,2.4,2.9,4.4,4.9,6.1
		c3,2.6,6.5,4.2,10.4,4.9c6.1,1.2,12,0.8,17.7-2c4.1-2,7.3-4.9,9.5-9c0.5-1,1.2-1.3,2-0.9c0.7,0.4,0.9,1.1,0.5,2
		c-0.7,1.5-1.6,2.8-2.7,4.1c-0.3,0.4-0.3,0.6,0,1c1.1,1.2,2.1,2.5,3.2,3.8C56.2,32.4,56.4,33,56.2,33.6z" />
	</g>
	<g id="bag">
		<path fill-rule="evenodd" clip-rule="evenodd" fill="#B3B3B3" d="M52.7,55.1c-0.2-1.4-0.4-2.9-0.6-4.3c-0.5-3.9-1.1-7.7-1.6-11.6
		c-0.4-3.2-0.9-6.3-1.3-9.5c-0.4-2.9-0.8-5.9-1.2-8.8c-0.2-1.6-1.1-2.4-2.7-2.4c-1.8,0-3.5,0-5.3,0c-0.3,0-0.4-0.1-0.3-0.4
		c0-0.7,0-1.5,0-2.2c0-1,0-2-0.1-3C38.8,9,34.9,6.1,31,6.7c-3.9,0.6-6.6,3.8-6.6,7.7c0,1.2,0,2.5,0,3.7c0,0.3-0.1,0.3-0.4,0.3
		c-1.8,0-3.6,0-5.4,0c-1.4,0-2.4,0.9-2.5,2.3c-0.5,3.3-0.9,6.6-1.4,9.9c-0.5,3.7-1,7.4-1.5,11c-0.6,4.4-1.2,8.8-1.8,13.2
		c-0.1,0.7,0.1,1.3,0.6,1.7c0.5,0.5,1.2,0.7,1.9,0.7c6.1,0,12.1,0,18.2,0c6,0,12.1,0,18.1,0c0.3,0,0.5,0,0.8-0.1
		C52,57.1,52.8,56.1,52.7,55.1z M26.2,14.2c0-3.1,2.4-5.6,5.5-5.8c3-0.2,5.7,2,6.2,5c0,0.3,0.1,0.6,0.1,0.9c0,1.2,0,2.5,0,3.7
		c0,0.3-0.1,0.4-0.4,0.4c-1.8,0-3.6,0-5.5,0c-1.8,0-3.7,0-5.5,0c-0.3,0-0.4-0.1-0.4-0.3C26.2,16.8,26.1,15.5,26.2,14.2z M50.4,55.6
		c-0.1,0-0.2,0-0.3,0H13.9c-0.1,0-0.3,0-0.4,0c-0.4-0.1-0.5-0.2-0.4-0.6c0.6-4.2,1.2-8.4,1.8-12.6c0.6-4.2,1.2-8.4,1.7-12.6
		c0.4-2.9,0.8-5.8,1.2-8.7c0.1-0.6,0.3-0.8,0.9-0.8c1.8,0,3.5,0,5.3,0c0.3,0,0.4,0.1,0.4,0.4c0,1.4,0,2.9,0,4.3c0,0.2,0,0.4-0.2,0.6
		c-0.3,0.5-0.2,1.2,0.2,1.6c0.5,0.4,1.2,0.4,1.6,0c0.5-0.4,0.6-1.1,0.2-1.6c-0.1-0.2-0.2-0.3-0.2-0.6c0-1.5,0-2.9,0-4.4
		c0-0.2,0.1-0.3,0.3-0.3c3.7,0,7.4,0,11.1,0c0.2,0,0.3,0,0.3,0.3c0,1.5,0,3,0,4.5c0,0.2-0.1,0.3-0.1,0.4c-0.4,0.5-0.3,1.2,0.2,1.6
		c0.5,0.4,1.2,0.4,1.6,0c0.5-0.4,0.6-1.1,0.2-1.6c-0.1-0.1-0.1-0.3-0.1-0.4c0-1.5,0-3,0-4.5c0-0.3,0.1-0.3,0.4-0.3
		c1.8,0,3.6,0,5.4,0c0.5,0,0.7,0.2,0.8,0.7c0.4,2.8,0.8,5.6,1.2,8.4c0.5,3.5,1,7,1.5,10.5c0.5,3.5,1,7,1.5,10.5
		c0.2,1.5,0.4,3.1,0.6,4.6C51,55.4,50.8,55.5,50.4,55.6z" />
	</g>
	<g id="search">
		<path fill-rule="evenodd" clip-rule="evenodd" fill="#B3B3B3" d="M52.3,50.7c-0.2-0.2-0.4-0.4-0.6-0.6c-3.8-3.8-7.5-7.6-11.3-11.3
	c-0.5-0.5-0.6-0.8-0.1-1.4c2.3-2.9,3.4-6.2,3.4-10.1c0-0.5-0.1-1.2-0.2-2c-1.4-8.6-8.8-14.5-17.5-13.7c-9.2,0.8-15.9,9.6-14.3,18.7
	c2.2,12.1,16.2,17.4,25.8,9.9c0.5-0.4,0.8-0.4,1.2,0.1c3.8,3.8,7.6,7.6,11.4,11.5c0.2,0.2,0.4,0.4,0.6,0.5c0.5,0.3,1,0.3,1.4-0.1
	C52.6,51.7,52.6,51.2,52.3,50.7z M27.6,41.4c-7.7,0-13.9-6.2-13.9-13.8c0-7.7,6.2-13.9,13.8-13.9c7.7,0,13.9,6.2,13.9,13.9
	C41.5,35.2,35.3,41.4,27.6,41.4z" />
	</g>
	<g id="home">
		<path fill-rule="evenodd" clip-rule="evenodd" fill="none" stroke-width="2" stroke-miterlimit="10" d="
		M51.2,37.7c0,5,0,10,0,14.9c0,1.9-0.7,2.6-2.6,2.6c-2.8,0-5.7,0-8.6,0c-0.9,0-1.2-0.2-1.2-1.2c0-4.7,0-9.4,0-14.1
		c0-0.3,0-0.6,0-0.8c-0.2-1.7-1.1-2.3-3.1-2.3c-2.4,0-4.8,0-7.2,0c-2,0-2.9,0.9-2.9,2.9c0,4.7,0,9.5,0,14.2c0,1-0.3,1.3-1.3,1.3
		c-2.9,0-5.7,0-8.6,0c-0.3,0-0.6,0-0.9,0c-1.3-0.5-1.8-1.4-1.8-2.8c0.1-5.3,0-10.5,0-15.8c0.1-0.1,0.2-0.2,0.3-0.3
		c5.5-5.7,11-11.4,16.5-17.1c2-2,2.8-2,4.8,0c3.2,3.3,6.3,6.6,9.5,9.9c2.1,2.2,4.3,4.4,6.4,6.7C51,36.3,51.2,36.9,51.2,37.7z" />
		<polyline fill-rule="evenodd" clip-rule="evenodd" fill="none" stroke-miterlimit="10" points="7.8,34.5 32,9.5 
		55.7,33.8 	" />
	</g>
	<g id="favorito">
		<path fill-rule="evenodd" clip-rule="evenodd" fill="#B3B3B3" stroke-width="0.9" stroke-miterlimit="10" d="
		M46.4,24c-0.4-2.9-2.6-5.4-5.5-6.2c-2.8-0.7-5.8-0.1-7.8,2.7c-0.4,0.6-0.8,1.2-1.1,1.8c-0.3-0.4-0.5-0.8-0.7-1.2
		c-0.7-1.1-1.5-2-2.7-2.7c-1.4-0.8-2.9-0.9-4.5-0.8c-3.5,0.4-6.4,3.4-6.5,6.9c-0.1,2.2,0.5,4.3,1.4,6.3c1,2.1,2.3,4,3.7,5.8
		c2.7,3.4,5.8,6.5,8.9,9.6c0.2,0.2,0.5,0.2,0.8,0c0.5-0.5,0.9-0.9,1.4-1.4c2.7-2.7,5.3-5.4,7.6-8.3c1.6-2.1,3.1-4.3,4.1-6.8
		C46.2,27.9,46.6,26,46.4,24z M45.5,25.8c-0.2,2.3-1.1,4.4-2.2,6.4c-1.3,2.2-2.8,4.2-4.5,6.1c-2.1,2.4-4.4,4.7-6.7,7
		c-0.1,0.1-0.2,0.2-0.3,0c-2.6-2.6-5.2-5.2-7.6-8.1c-1.5-1.8-2.9-3.7-4-5.8c-1-1.9-1.7-3.9-1.8-7c-0.1-3,3.1-6.1,7-5.9
		c2.2,0.1,3.8,1.1,4.9,2.9c0.4,0.6,0.8,1.3,1.1,2c0.1,0.2,0.2,0.4,0.5,0.4c0.3,0,0.4-0.2,0.5-0.4c0.5-1,1-1.9,1.7-2.7
		c1.3-1.6,3.1-2.3,5.1-2.1C43.2,18.7,45.9,21.9,45.5,25.8z" />
	</g>
	<polygon id="estrella" fill-rule="evenodd" clip-rule="evenodd" fill="none" stroke-miterlimit="10" points="32,17.6 36.7,27.1 
	47.2,28.6 39.6,36 41.4,46.4 32,41.5 22.6,46.4 24.4,36 16.8,28.6 27.3,27.1 " />
	<g id="punto-1">
		<path fill-rule="evenodd" clip-rule="evenodd" fill="none" stroke="#B3B3B3" stroke-miterlimit="10" d="M41.8,32
		c-6.5,4.7-13,9.4-19.6,14.1c0,0,0,0,0,0c3.2-4.6,6.4-9.2,9.6-13.8c0.1-0.2,0.1-0.3,0-0.5c-3.1-4.5-6.3-9-9.4-13.5
		c-0.1-0.1-0.1-0.2-0.2-0.3C28.7,22.6,35.3,27.3,41.8,32z" />
	</g>
	<g id="subir">
	<path fill="none" stroke="#B3B3B3" stroke-width="3" stroke-miterlimit="10" d="M62.5,6.2c0,17.2,0,34.5,0,51.7
		c0,2.6-2.1,4.6-4.6,4.6c-8.7,0-17.4,0-26,0s-17.2,0-25.8,0c-2.7,0-4.5-1.9-4.5-4.5c0-17.3,0-34.6,0-51.9c0-2.6,1.8-4.5,4.6-4.5
		c17.3-0.1,34.5-0.1,51.8,0C60.6,1.5,62.5,3.5,62.5,6.2z"/>
	
		<polyline fill-rule="evenodd" clip-rule="evenodd" fill="none" stroke="#B3B3B3" stroke-width="1.75" stroke-miterlimit="10" points="
		17.1,41.8 32.9,22.3 46.9,41.8 	"/>
	</g>

	<g id="comentarios">
	<path fill="none" stroke="#B3B3B3" stroke-miterlimit="10" d="M52.7,16.2c0,0-1.1-9-9.1-9.2c-8-0.2-23.8-0.2-23.8-0.2s-7,0.8-8.5,9
		v18.8c0,0,0.3,9.1,10.6,8.6l-6.5,13.9L33,43.8l11.2-0.3c0,0,7.8-1.1,8.3-8L52.7,16.2z"/>
	</g>


</svg>
